<svg width="367" height="213" viewBox="0 0 367 213" fill="none" xmlns="http://www.w3.org/2000/svg">
<g filter="url(#filter0_d)">
<path d="M154.424 44.56C155.491 44.56 156.365 44.7733 157.048 45.2C157.773 45.584 158.371 46.1173 158.84 46.8C159.309 47.44 159.693 48.1867 159.992 49.04C160.291 49.8933 160.547 50.768 160.76 51.664C162.467 58.576 163.875 64.272 164.984 68.752C166.093 73.232 166.968 76.8587 167.608 79.632C168.248 82.3627 168.696 84.3893 168.952 85.712C169.208 87.0347 169.336 87.952 169.336 88.464C169.336 89.0613 169.187 89.4667 168.888 89.68C168.632 89.8933 168.205 90 167.608 90H164.344C162.509 90 161.037 89.7867 159.928 89.36C158.861 88.8907 158.029 88.2293 157.432 87.376C156.877 86.5227 156.472 85.4987 156.216 84.304C155.96 83.0667 155.747 81.68 155.576 80.144H144.44L142.328 88.976C142.115 89.6587 141.624 90 140.856 90H137.464C136.781 90 136.077 89.936 135.352 89.808C134.627 89.6373 133.965 89.3813 133.368 89.04C132.813 88.6987 132.344 88.272 131.96 87.76C131.576 87.2053 131.384 86.544 131.384 85.776C131.384 84.8373 131.683 83.3013 132.28 81.168C132.877 79.0347 133.624 76.624 134.52 73.936C135.459 71.2053 136.483 68.368 137.592 65.424C138.744 62.4373 139.853 59.6213 140.92 56.976C141.987 54.3307 142.947 52.0053 143.8 50C144.696 47.9947 145.379 46.5867 145.848 45.776C146.189 45.1787 146.488 44.8373 146.744 44.752C147.043 44.624 147.576 44.56 148.344 44.56H154.424ZM146.744 70.864H154.104L151.416 53.968L146.744 70.864ZM193.921 70.096C193.665 70.096 193.366 70.096 193.025 70.096C192.726 70.0533 192.428 70.0107 192.129 69.968C191.83 69.8827 191.574 69.7973 191.361 69.712C191.148 69.584 191.041 69.4347 191.041 69.264C191.041 68.7093 191.062 68.1973 191.105 67.728C191.148 67.2587 191.169 66.768 191.169 66.256C191.169 65.3173 191.041 64.5493 190.785 63.952C190.529 63.3547 190.017 63.056 189.249 63.056C188.054 63.056 187.052 63.8453 186.241 65.424C185.473 66.96 184.982 69.2853 184.769 72.4C184.684 73.7653 184.556 75.3227 184.385 77.072C184.257 78.7787 184.129 80.4427 184.001 82.064C183.873 83.6427 183.766 85.0507 183.681 86.288C183.596 87.5253 183.553 88.336 183.553 88.72C183.553 89.1467 183.404 89.4667 183.105 89.68C182.806 89.8933 182.486 90 182.145 90H179.841C178.518 90 177.43 89.872 176.577 89.616C175.766 89.3173 175.105 88.912 174.593 88.4C174.124 87.888 173.782 87.2693 173.569 86.544C173.398 85.776 173.313 84.9013 173.313 83.92C173.313 83.28 173.334 82.384 173.377 81.232C173.462 80.0373 173.59 78.416 173.761 76.368C173.932 74.2773 174.124 71.6533 174.337 68.496C174.593 65.296 174.892 61.3493 175.233 56.656C175.318 55.4187 175.766 54.8 176.577 54.8H179.073C180.268 54.8 181.27 54.928 182.081 55.184C182.892 55.44 183.553 55.8027 184.065 56.272C184.577 56.6987 184.94 57.2107 185.153 57.808C185.409 58.4053 185.58 59.024 185.665 59.664C186.177 58.6827 186.774 57.8507 187.457 57.168C188.182 56.4427 188.929 55.8667 189.697 55.44C190.465 54.9707 191.254 54.6507 192.065 54.48C192.876 54.2667 193.622 54.16 194.305 54.16C195.116 54.16 195.926 54.3093 196.737 54.608C197.59 54.9067 198.358 55.3547 199.041 55.952C199.724 56.5493 200.257 57.3173 200.641 58.256C201.068 59.1947 201.281 60.304 201.281 61.584C201.281 62.736 201.11 63.824 200.769 64.848C200.428 65.872 199.937 66.7893 199.297 67.6C198.657 68.368 197.868 68.9867 196.929 69.456C196.033 69.8827 195.03 70.096 193.921 70.096ZM217.634 63.44C217.506 65.0613 217.357 66.6613 217.186 68.24C217.058 69.8187 216.93 71.312 216.802 72.72C216.674 74.128 216.567 75.3867 216.482 76.496C216.439 77.6053 216.418 78.4587 216.418 79.056C216.418 80.1653 216.546 80.912 216.802 81.296C217.058 81.6373 217.485 81.808 218.082 81.808C218.551 81.808 218.957 81.7227 219.298 81.552C219.639 81.3813 219.959 81.1893 220.258 80.976C220.557 80.7627 220.813 80.5707 221.026 80.4C221.282 80.2293 221.559 80.144 221.858 80.144C222.157 80.144 222.434 80.3147 222.69 80.656C222.946 80.9973 223.074 81.7867 223.074 83.024C223.074 85.3707 222.434 87.2267 221.154 88.592C219.874 89.9573 217.677 90.64 214.562 90.64C211.49 90.64 209.207 89.936 207.714 88.528C206.263 87.0773 205.538 84.88 205.538 81.936C205.538 81.296 205.559 80.5493 205.602 79.696C205.687 78.8 205.794 77.648 205.922 76.24C206.05 74.832 206.199 73.104 206.37 71.056C206.583 69.008 206.797 66.4693 207.01 63.44H203.618C203.277 63.44 203.063 63.376 202.978 63.248C202.935 63.0773 202.914 62.8427 202.914 62.544L203.106 59.28C203.149 58.7253 203.213 58.192 203.298 57.68C203.426 57.1253 203.639 56.6347 203.938 56.208C204.279 55.7813 204.749 55.44 205.346 55.184C205.943 54.928 206.733 54.8 207.714 54.8C208.013 54.032 208.354 53.1147 208.738 52.048C209.122 50.9813 209.506 49.9573 209.89 48.976C210.274 47.952 210.637 47.0987 210.978 46.416C211.362 45.7333 211.703 45.392 212.002 45.392H213.858C215.65 45.392 216.887 45.9467 217.57 47.056C218.253 48.1653 218.594 49.488 218.594 51.024C218.594 51.8773 218.53 53.136 218.402 54.8H225.122C225.805 54.8 226.146 55.0987 226.146 55.696L225.89 59.152C225.805 60.432 225.442 61.4773 224.802 62.288C224.205 63.056 222.946 63.44 221.026 63.44H217.634ZM236.029 90C234.706 90 233.618 89.872 232.765 89.616C231.954 89.3173 231.293 88.912 230.781 88.4C230.311 87.888 229.97 87.2693 229.757 86.544C229.586 85.776 229.501 84.9013 229.501 83.92C229.501 83.28 229.522 82.384 229.565 81.232C229.65 80.0373 229.778 78.416 229.949 76.368C230.119 74.2773 230.311 71.6533 230.525 68.496C230.781 65.296 231.079 61.3493 231.421 56.656C231.463 55.7173 231.57 55.1627 231.741 54.992C231.869 54.864 232.21 54.8 232.765 54.8H235.26C236.583 54.8 237.65 54.928 238.461 55.184C239.314 55.44 239.975 55.824 240.445 56.336C240.957 56.848 241.298 57.4667 241.469 58.192C241.682 58.9173 241.789 59.728 241.789 60.624C241.789 61.264 241.746 62.224 241.661 63.504C241.575 64.784 241.447 66.5333 241.277 68.752C241.149 70.928 240.957 73.6587 240.701 76.944C240.445 80.1867 240.125 84.112 239.741 88.72C239.698 89.232 239.591 89.5733 239.421 89.744C239.25 89.9147 238.887 90 238.333 90H236.029ZM231.485 47.248C231.485 45.5413 232.103 44.1973 233.341 43.216C234.578 42.2347 236.242 41.744 238.333 41.744C240.167 41.744 241.49 42.128 242.301 42.896C243.154 43.6213 243.581 44.6027 243.581 45.84C243.581 47.4187 242.983 48.7413 241.789 49.808C240.637 50.832 238.93 51.344 236.669 51.344C233.213 51.344 231.485 49.9787 231.485 47.248ZM262.349 54.16C265.975 54.16 268.642 54.8853 270.349 56.336C272.055 57.744 272.909 59.5573 272.909 61.776C272.909 63.6533 272.311 65.0827 271.117 66.064C269.965 67.0453 268.279 67.536 266.061 67.536C265.463 67.536 265.058 67.472 264.845 67.344C264.631 67.216 264.525 66.9813 264.525 66.64C264.525 66.256 264.482 65.8293 264.397 65.36C264.354 64.848 264.205 64.3787 263.949 63.952C263.735 63.4827 263.373 63.0987 262.861 62.8C262.391 62.5013 261.709 62.352 260.812 62.352C259.618 62.352 258.658 62.6507 257.933 63.248C257.207 63.8027 256.845 64.5067 256.845 65.36C256.845 66.256 257.207 66.9813 257.933 67.536C258.701 68.048 259.639 68.5387 260.749 69.008C261.901 69.4773 263.138 69.968 264.461 70.48C265.783 70.9493 266.999 71.5893 268.109 72.4C269.261 73.2107 270.199 74.2347 270.925 75.472C271.693 76.6667 272.077 78.224 272.077 80.144C272.077 83.216 270.989 85.7333 268.813 87.696C266.637 89.6587 263.373 90.64 259.021 90.64C257.826 90.64 256.439 90.5333 254.861 90.32C253.325 90.1493 251.853 89.872 250.445 89.488C249.037 89.0613 247.842 88.5067 246.861 87.824C245.922 87.1413 245.453 86.288 245.453 85.264C245.453 84.88 245.517 84.4107 245.645 83.856C245.815 83.3013 246.05 82.768 246.349 82.256C246.69 81.744 247.074 81.3173 247.501 80.976C247.97 80.592 248.525 80.4 249.165 80.4C249.677 80.4 250.146 80.528 250.573 80.784C250.999 81.04 251.49 81.3173 252.045 81.616C252.642 81.872 253.367 82.128 254.22 82.384C255.074 82.64 256.205 82.768 257.613 82.768C258.679 82.768 259.618 82.64 260.429 82.384C261.282 82.128 261.708 81.552 261.708 80.656C261.708 79.8453 261.367 79.2053 260.685 78.736C260.002 78.224 259.127 77.7547 258.061 77.328C257.037 76.9013 255.906 76.4533 254.669 75.984C253.474 75.472 252.343 74.8107 251.277 74C250.253 73.1893 249.399 72.1653 248.717 70.928C248.034 69.648 247.693 68.0053 247.693 66C247.693 63.824 248.119 61.9893 248.973 60.496C249.869 58.96 250.999 57.7227 252.365 56.784C253.773 55.8453 255.351 55.184 257.101 54.8C258.85 54.3733 260.599 54.16 262.349 54.16ZM291.259 63.44C291.131 65.0613 290.982 66.6613 290.811 68.24C290.683 69.8187 290.555 71.312 290.427 72.72C290.299 74.128 290.192 75.3867 290.107 76.496C290.064 77.6053 290.043 78.4587 290.043 79.056C290.043 80.1653 290.171 80.912 290.427 81.296C290.683 81.6373 291.11 81.808 291.707 81.808C292.176 81.808 292.582 81.7227 292.923 81.552C293.264 81.3813 293.584 81.1893 293.883 80.976C294.182 80.7627 294.438 80.5707 294.651 80.4C294.907 80.2293 295.184 80.144 295.483 80.144C295.782 80.144 296.059 80.3147 296.315 80.656C296.571 80.9973 296.699 81.7867 296.699 83.024C296.699 85.3707 296.059 87.2267 294.779 88.592C293.499 89.9573 291.302 90.64 288.187 90.64C285.115 90.64 282.832 89.936 281.339 88.528C279.888 87.0773 279.163 84.88 279.163 81.936C279.163 81.296 279.184 80.5493 279.227 79.696C279.312 78.8 279.419 77.648 279.547 76.24C279.675 74.832 279.824 73.104 279.995 71.056C280.208 69.008 280.422 66.4693 280.635 63.44H277.243C276.902 63.44 276.688 63.376 276.603 63.248C276.56 63.0773 276.539 62.8427 276.539 62.544L276.731 59.28C276.774 58.7253 276.838 58.192 276.923 57.68C277.051 57.1253 277.264 56.6347 277.563 56.208C277.904 55.7813 278.374 55.44 278.971 55.184C279.568 54.928 280.358 54.8 281.339 54.8C281.638 54.032 281.979 53.1147 282.363 52.048C282.747 50.9813 283.131 49.9573 283.515 48.976C283.899 47.952 284.262 47.0987 284.603 46.416C284.987 45.7333 285.328 45.392 285.627 45.392H287.483C289.275 45.392 290.512 45.9467 291.195 47.056C291.878 48.1653 292.219 49.488 292.219 51.024C292.219 51.8773 292.155 53.136 292.027 54.8H298.747C299.43 54.8 299.771 55.0987 299.771 55.696L299.515 59.152C299.43 60.432 299.067 61.4773 298.427 62.288C297.83 63.056 296.571 63.44 294.651 63.44H291.259ZM301.142 82.128C301.142 78.288 302.87 75.28 306.326 73.104C309.782 70.928 314.88 69.7547 321.622 69.584C321.664 69.1147 321.686 68.7307 321.686 68.432C321.728 68.0907 321.75 67.6853 321.75 67.216C321.75 65.8507 321.494 64.7627 320.982 63.952C320.47 63.1413 319.403 62.736 317.782 62.736C316.886 62.736 316.16 62.864 315.606 63.12C315.051 63.376 314.603 63.7387 314.262 64.208C313.92 64.6347 313.643 65.168 313.43 65.808C313.216 66.448 313.024 67.152 312.854 67.92C312.768 68.304 312.576 68.56 312.278 68.688C311.979 68.7733 311.51 68.816 310.87 68.816C306.518 68.816 304.342 67.1733 304.342 63.888C304.342 62.5653 304.64 61.3067 305.238 60.112C305.878 58.9173 306.795 57.8933 307.99 57.04C309.227 56.144 310.763 55.44 312.598 54.928C314.432 54.416 316.566 54.16 318.998 54.16C323.734 54.16 327.168 55.1413 329.302 57.104C331.435 59.0667 332.502 61.84 332.502 65.424C332.502 65.8933 332.438 66.7467 332.31 67.984C332.224 69.1787 332.096 70.4587 331.926 71.824C331.798 73.1467 331.67 74.4053 331.542 75.6C331.456 76.7947 331.414 77.6267 331.414 78.096C331.414 79.1627 331.606 79.9307 331.99 80.4C332.374 80.8267 332.8 81.1253 333.27 81.296C333.782 81.4667 334.23 81.5947 334.614 81.68C334.998 81.7653 335.19 81.9787 335.19 82.32C335.19 83.2587 335.062 84.2187 334.806 85.2C334.55 86.1813 334.123 87.0773 333.526 87.888C332.971 88.6987 332.182 89.36 331.158 89.872C330.176 90.384 328.96 90.64 327.51 90.64C325.462 90.64 323.926 90.1493 322.902 89.168C321.878 88.1867 321.195 86.8213 320.854 85.072C319.83 86.5653 318.486 87.8667 316.822 88.976C315.2 90.0853 313.067 90.64 310.422 90.64C309.142 90.64 307.926 90.4907 306.774 90.192C305.664 89.8933 304.683 89.4027 303.83 88.72C303.019 88.0373 302.358 87.1627 301.846 86.096C301.376 84.9867 301.142 83.664 301.142 82.128ZM321.046 74.832C319.936 74.832 318.848 74.9173 317.782 75.088C316.715 75.2587 315.755 75.536 314.902 75.92C314.091 76.2613 313.43 76.7307 312.918 77.328C312.406 77.9253 312.15 78.6507 312.15 79.504C312.15 80.4853 312.448 81.168 313.046 81.552C313.686 81.936 314.368 82.128 315.094 82.128C315.776 82.128 316.459 81.9787 317.142 81.68C317.824 81.3813 318.422 80.9333 318.934 80.336C319.488 79.696 319.958 78.928 320.342 78.032C320.726 77.136 320.96 76.0693 321.046 74.832Z" fill="#FF6B6B"/>
</g>
<g filter="url(#filter1_d)">
<path d="M69.9531 128.497C77.1307 128.56 83.0221 122.773 83.086 115.595C83.1006 113.951 82.8087 112.34 82.2189 110.807C81.8212 109.775 80.6612 109.259 79.6283 109.657C78.5954 110.055 78.08 111.214 78.4774 112.247C78.8855 113.308 79.0873 114.422 79.0772 115.559C79.0331 120.527 74.9561 124.532 69.9887 124.488C67.5824 124.467 65.3285 123.509 63.642 121.793C61.9555 120.076 61.0384 117.806 61.0598 115.399C61.0813 112.993 62.0383 110.739 63.7549 109.053C65.4715 107.366 67.7423 106.449 70.1488 106.471C71.2985 106.481 72.4202 106.707 73.4832 107.143C74.5075 107.563 75.6781 107.073 76.0982 106.049C76.5182 105.025 76.0294 103.854 75.0043 103.434C73.4674 102.804 71.8457 102.477 70.1841 102.462C66.707 102.431 63.426 103.756 60.9455 106.193C58.465 108.63 57.0819 111.887 57.0512 115.364C57.0203 118.841 58.3452 122.122 60.7821 124.602C63.2191 127.083 66.476 128.466 69.9531 128.497Z" fill="#FF6B6B"/>
<path d="M180.311 128.677L180.325 127.087C181.433 127.006 182.498 126.572 183.35 125.831C184.469 124.859 185.117 123.451 185.13 121.969L185.141 120.728C185.151 119.621 184.262 118.716 183.155 118.706C182.048 118.697 181.142 119.586 181.133 120.693L181.122 121.933C181.118 122.392 180.868 122.677 180.719 122.807C180.571 122.936 180.253 123.144 179.799 123.084L160.222 120.521L160.297 112.04L179.916 109.824C180.372 109.773 180.686 109.986 180.832 110.118C180.978 110.248 181.223 110.54 181.219 110.999L181.21 111.964C181.2 113.071 182.09 113.977 183.197 113.987C184.304 113.997 185.209 113.107 185.219 112L185.228 111.035C185.241 109.553 184.62 108.137 183.516 107.141C182.677 106.385 181.62 105.932 180.513 105.832L180.527 104.241C180.537 103.134 179.648 102.229 178.541 102.219C177.434 102.21 176.528 103.099 176.519 104.206L176.501 106.175L173.704 106.491L173.717 104.988C173.727 103.881 172.837 102.976 171.73 102.966C170.623 102.956 169.718 103.846 169.708 104.953L169.69 106.945L166.893 107.26L166.903 106.139C166.912 105.032 166.023 104.126 164.916 104.117C163.809 104.107 162.904 104.996 162.894 106.103L162.88 107.714L159.437 108.103C158.516 108.207 157.711 108.662 157.145 109.324L112.68 108.106C112.565 102.532 110.374 97.3055 106.454 93.3158C106.428 93.2889 106.401 93.2621 106.375 93.2354C102.347 89.1761 97.01 86.9439 91.3488 86.9507C88.8693 86.9536 86.4385 87.3803 84.1244 88.2189C79.9628 89.7267 75.2254 88.7378 72.0551 85.6995C66.4248 80.3032 59.0287 77.2692 51.2297 77.1563C43.0701 77.0385 35.3348 80.1404 29.4487 85.8907C23.4468 91.7539 20.1007 99.6058 20.0262 108L19.9014 122.07C19.8351 129.542 22.4487 136.802 27.261 142.514C27.7756 143.124 28.3111 143.713 28.8668 144.278C33.4775 148.972 39.4434 152.073 45.8965 153.091C46.9898 153.263 48.0162 152.516 48.1886 151.423C48.3612 150.329 47.6144 149.303 46.5207 149.131C33.5117 147.079 23.7917 135.461 23.9104 122.106L24.0352 108.036C24.0998 100.716 27.0174 93.8703 32.25 88.7582C37.3673 83.7591 44.087 81.0623 51.1715 81.1648C57.9536 81.2629 64.3849 83.9013 69.2811 88.5938C73.5436 92.6791 79.9058 94.0112 85.4898 91.988C87.3664 91.3081 89.339 90.962 91.3534 90.9597C95.9363 90.9542 100.26 92.7653 103.529 96.059L103.594 96.1248C106.745 99.3328 108.53 103.522 108.67 107.996L90.2226 107.491C89.318 107.466 88.4608 107.798 87.8095 108.427C87.1581 109.055 86.7952 109.899 86.787 110.804L86.7013 120.451C86.6935 121.346 87.0332 122.187 87.6592 122.824L87.6815 122.847C88.3215 123.487 89.1725 123.834 90.0776 123.825L108.531 123.648C108.31 128.15 106.427 132.332 103.179 135.491C99.8522 138.727 95.4966 140.461 90.9145 140.374C88.9009 140.336 86.9343 139.955 85.0702 139.242C79.5231 137.119 73.138 138.338 68.8038 142.348C64.8478 146.007 59.9502 148.36 54.6402 149.155C53.5453 149.318 52.7907 150.339 52.9545 151.434C53.0196 151.868 53.2194 152.249 53.5056 152.541C53.9399 152.983 54.573 153.218 55.2332 153.119C61.3423 152.205 66.9761 149.498 71.5255 145.29C74.749 142.309 79.5032 141.404 83.6375 142.986C85.9363 143.865 88.3589 144.335 90.8381 144.382C96.4984 144.489 101.873 142.352 105.973 138.365C110.012 134.437 112.326 129.218 112.541 123.609L157.019 123.18C157.085 123.26 157.153 123.339 157.226 123.413C157.764 123.96 158.481 124.336 159.291 124.442L162.726 124.892L162.712 126.503C162.707 127.056 162.927 127.559 163.287 127.925C163.646 128.291 164.145 128.52 164.699 128.525C165.806 128.534 166.711 127.645 166.721 126.538L166.731 125.416L169.523 125.782L169.505 127.774C169.5 128.328 169.72 128.831 170.079 129.197C170.439 129.562 170.938 129.791 171.491 129.796C172.598 129.806 173.504 128.917 173.513 127.81L173.527 126.306L176.318 126.672L176.301 128.642C176.296 129.195 176.516 129.699 176.876 130.064C177.235 130.43 177.734 130.659 178.288 130.664C179.396 130.674 180.301 129.784 180.311 128.677ZM156.225 119.179L150.263 119.237L150.317 113.148L156.277 113.311L156.225 119.179ZM141.549 119.32L141.606 112.909L146.309 113.038L146.254 119.275L141.549 119.32ZM131.545 119.417L131.605 112.635L137.598 112.799L137.54 119.359L131.545 119.417ZM121.541 119.513L121.604 112.361L127.597 112.525L127.536 119.455L121.541 119.513ZM101.351 119.708L101.421 111.808L107.505 111.975L107.436 119.649L101.351 119.708ZM111.446 119.61L111.512 112.084L117.596 112.251L117.531 119.552L111.446 119.61ZM90.7161 119.81L90.7897 111.517L97.4133 111.698L97.3419 119.746L90.7161 119.81Z" fill="#FF6B6B"/>
<path d="M46.4476 123.472C46.807 123.837 47.3062 124.066 47.8598 124.071C48.9668 124.081 49.8722 123.192 49.8818 122.085L50.0023 108.517C50.0119 107.41 49.1227 106.505 48.0157 106.495C46.9087 106.485 46.0033 107.375 45.9937 108.481L45.8732 122.049C45.8683 122.602 46.0882 123.106 46.4476 123.472Z" fill="#FF6B6B"/>
<path d="M40.3245 106.427C39.2175 106.417 38.3121 107.306 38.3025 108.413L38.182 121.981C38.1773 122.534 38.3971 123.037 38.7565 123.403C39.116 123.769 39.6151 123.998 40.1688 124.003C41.2758 124.013 42.1812 123.123 42.1908 122.017L42.3113 108.449C42.3207 107.342 41.4315 106.436 40.3245 106.427Z" fill="#FF6B6B"/>
<path d="M175.364 114.41L170.734 114.369C169.627 114.359 168.721 115.249 168.712 116.356C168.707 116.909 168.927 117.412 169.286 117.778C169.646 118.144 170.145 118.373 170.698 118.378L175.329 118.419C176.436 118.429 177.341 117.539 177.351 116.432C177.361 115.325 176.471 114.42 175.364 114.41Z" fill="#FF6B6B"/>
</g>
<g filter="url(#filter2_d)">
<path d="M46.8641 17.92C50.8748 17.92 53.8401 18.7947 55.7601 20.544C57.7228 22.2933 58.7041 24.576 58.7041 27.392C58.7041 29.7813 58.0428 31.616 56.7201 32.896C55.3975 34.1333 53.4988 34.752 51.0241 34.752C50.2561 34.752 49.7655 34.688 49.5521 34.56C49.3388 34.3893 49.2321 34.0693 49.2321 33.6C49.2321 33.1733 49.1895 32.6187 49.1041 31.936C49.0615 31.2533 48.9121 30.592 48.6561 29.952C48.4001 29.312 47.9948 28.7787 47.4401 28.352C46.8855 27.8827 46.1175 27.648 45.1361 27.648C43.7708 27.648 42.5548 28.0747 41.4881 28.928C40.4215 29.7387 39.8881 30.8053 39.8881 32.128C39.8881 33.28 40.3148 34.2187 41.1681 34.944C42.0641 35.6693 43.1735 36.352 44.4961 36.992C45.8188 37.5893 47.2481 38.208 48.7841 38.848C50.3628 39.488 51.8135 40.3413 53.1361 41.408C54.4588 42.432 55.5468 43.7333 56.4001 45.312C57.2961 46.848 57.7441 48.8107 57.7441 51.2C57.7441 53.0773 57.4241 54.848 56.7841 56.512C56.1868 58.1333 55.2695 59.5627 54.0321 60.8C52.8375 61.9947 51.3015 62.9333 49.4241 63.616C47.5895 64.2987 45.4348 64.64 42.9601 64.64C40.8268 64.64 38.8428 64.4053 37.0081 63.936C35.2161 63.4667 33.6375 62.8907 32.2721 62.208C30.9495 61.4827 29.9041 60.7147 29.1361 59.904C28.3681 59.0507 27.9841 58.2827 27.9841 57.6C27.9841 54.784 28.1335 52.7573 28.4321 51.52C28.7735 50.2827 29.3708 49.664 30.2241 49.664C30.8215 49.664 31.4401 49.92 32.0801 50.432C32.7628 50.944 33.5308 51.52 34.3841 52.16C35.2375 52.8 36.2188 53.376 37.3281 53.888C38.4801 54.4 39.8028 54.656 41.2961 54.656C41.8935 54.656 42.4695 54.6133 43.0241 54.528C43.6215 54.4 44.1335 54.208 44.5601 53.952C45.0295 53.696 45.3921 53.3547 45.6481 52.928C45.9468 52.5013 46.0961 51.9893 46.0961 51.392C46.0961 50.3253 45.6908 49.472 44.8801 48.832C44.0695 48.192 43.0455 47.616 41.8081 47.104C40.5708 46.5493 39.2268 45.9947 37.7761 45.44C36.3681 44.8427 35.0455 44.0533 33.8081 43.072C32.5708 42.048 31.5468 40.7467 30.7361 39.168C29.9255 37.5893 29.5201 35.5627 29.5201 33.088C29.5201 30.3147 30.0321 27.968 31.0561 26.048C32.1228 24.128 33.4668 22.5707 35.0881 21.376C36.7521 20.1387 38.6081 19.264 40.6561 18.752C42.7468 18.1973 44.8161 17.92 46.8641 17.92ZM78.0331 64.64C76.1558 64.64 74.2785 64.4053 72.4011 63.936C70.5665 63.4667 68.9025 62.656 67.4091 61.504C65.9585 60.352 64.7638 58.816 63.8251 56.896C62.8865 54.976 62.4171 52.5653 62.4171 49.664C62.4171 48.5973 62.5025 47.3173 62.6731 45.824C62.8438 44.3307 63.1638 42.7947 63.6331 41.216C64.1451 39.6373 64.8278 38.08 65.6811 36.544C66.5771 34.9653 67.7291 33.5573 69.1371 32.32C70.5451 31.0827 72.2518 30.08 74.2571 29.312C76.2625 28.544 78.6518 28.16 81.4251 28.16C83.6438 28.16 85.5211 28.416 87.0571 28.928C88.5931 29.44 89.8305 30.144 90.7691 31.04C91.7078 31.8933 92.3905 32.896 92.8171 34.048C93.2438 35.2 93.4571 36.4373 93.4571 37.76C93.4571 39.7227 93.0518 41.3867 92.2411 42.752C91.4731 44.1173 90.4491 45.2693 89.1691 46.208C87.9318 47.104 86.5451 47.808 85.0091 48.32C83.4731 48.832 81.9585 49.2373 80.4651 49.536C78.9718 49.792 77.5851 49.9627 76.3051 50.048C75.0678 50.0907 74.1078 50.112 73.4251 50.112C73.4251 50.9227 73.5318 51.7333 73.7451 52.544C74.0011 53.312 74.3638 53.9947 74.8331 54.592C75.3025 55.1893 75.9211 55.68 76.6891 56.064C77.4571 56.448 78.3958 56.64 79.5051 56.64C80.6145 56.64 81.4678 56.4693 82.0651 56.128C82.7051 55.744 83.2171 55.3387 83.6011 54.912C83.9851 54.4427 84.3051 54.0373 84.5611 53.696C84.8598 53.312 85.2438 53.12 85.7131 53.12C85.9265 53.12 86.2891 53.184 86.8011 53.312C87.3558 53.3973 87.9105 53.6107 88.4651 53.952C89.0198 54.2933 89.5105 54.7627 89.9371 55.36C90.3638 55.9573 90.5771 56.7253 90.5771 57.664C90.5771 58.9013 90.1931 59.968 89.4251 60.864C88.6571 61.76 87.6545 62.4853 86.4171 63.04C85.2225 63.5947 83.8785 64 82.3851 64.256C80.8918 64.512 79.4411 64.64 78.0331 64.64ZM79.2491 36.672C78.3105 36.672 77.4998 36.9493 76.8171 37.504C76.1771 38.016 75.6225 38.6773 75.1531 39.488C74.7265 40.2987 74.3851 41.1947 74.1291 42.176C73.9158 43.1573 73.7451 44.096 73.6171 44.992C76.2625 44.9493 78.3958 44.5013 80.0171 43.648C81.6811 42.7947 82.5131 41.5787 82.5131 40C82.5131 39.1467 82.2358 38.3787 81.6811 37.696C81.1691 37.0133 80.3585 36.672 79.2491 36.672ZM109.536 34.24C109.536 35.136 109.45 36.3947 109.28 38.016C109.152 39.6373 109.002 41.3227 108.832 43.072C108.704 44.8213 108.554 46.464 108.384 48C108.256 49.536 108.192 50.6453 108.192 51.328C108.192 52.8213 108.554 53.9947 109.28 54.848C110.048 55.6587 111.093 56.064 112.416 56.064C113.568 56.064 114.528 55.616 115.296 54.72C116.106 53.7813 116.746 52.5867 117.216 51.136C117.728 49.6427 118.133 47.9573 118.432 46.08C118.73 44.2027 118.944 42.304 119.072 40.384C119.242 38.464 119.37 36.608 119.456 34.816C119.584 32.9813 119.712 31.4027 119.84 30.08C119.882 29.7387 120.01 29.44 120.224 29.184C120.437 28.928 120.778 28.8 121.248 28.8H123.552C124.874 28.8 125.941 28.9493 126.752 29.248C127.605 29.504 128.266 29.888 128.736 30.4C129.248 30.912 129.589 31.552 129.76 32.32C129.973 33.0453 130.08 33.8987 130.08 34.88C130.08 35.52 130.037 36.4373 129.952 37.632C129.909 38.784 129.802 40.4053 129.632 42.496C129.461 44.544 129.248 47.168 128.992 50.368C128.778 53.5253 128.501 57.4507 128.16 62.144C128.074 63.04 127.968 63.5733 127.84 63.744C127.754 63.9147 127.413 64 126.816 64H124.32C123.04 64 121.973 63.8507 121.12 63.552C120.309 63.2533 119.648 62.8693 119.136 62.4C118.624 61.9307 118.261 61.376 118.048 60.736C117.834 60.096 117.706 59.4347 117.664 58.752C117.024 59.8613 116.298 60.8 115.488 61.568C114.72 62.336 113.909 62.9547 113.056 63.424C112.202 63.8507 111.328 64.1493 110.432 64.32C109.536 64.5333 108.661 64.64 107.808 64.64C106.186 64.64 104.736 64.384 103.456 63.872C102.176 63.3173 101.088 62.592 100.192 61.696C99.3383 60.8 98.677 59.7333 98.2076 58.496C97.7383 57.2587 97.5036 55.936 97.5036 54.528C97.5036 53.9733 97.525 53.0773 97.5676 51.84C97.653 50.56 97.7383 49.1307 97.8236 47.552C97.9516 45.9733 98.0796 44.3093 98.2076 42.56C98.3356 40.768 98.4423 39.0827 98.5276 37.504C98.6556 35.9253 98.7623 34.5387 98.8476 33.344C98.9756 32.1493 99.061 31.296 99.1036 30.784C99.189 30.016 99.3596 29.504 99.6156 29.248C99.8716 28.9493 100.298 28.8 100.896 28.8H102.944C104.266 28.8 105.354 28.928 106.208 29.184C107.061 29.44 107.722 29.8027 108.192 30.272C108.704 30.7413 109.045 31.3173 109.216 32C109.429 32.64 109.536 33.3867 109.536 34.24Z" fill="#FF6B6B"/>
</g>
<defs>
<filter id="filter0_d" x="127.384" y="41.744" width="211.806" height="56.896" filterUnits="userSpaceOnUse" color-interpolation-filters="sRGB">
<feFlood flood-opacity="0" result="BackgroundImageFix"/>
<feColorMatrix in="SourceAlpha" type="matrix" values="0 0 0 0 0 0 0 0 0 0 0 0 0 0 0 0 0 0 127 0"/>
<feOffset dy="4"/>
<feGaussianBlur stdDeviation="2"/>
<feColorMatrix type="matrix" values="0 0 0 0 0 0 0 0 0 0 0 0 0 0 0 0 0 0 0.25 0"/>
<feBlend mode="normal" in2="BackgroundImageFix" result="effect1_dropShadow"/>
<feBlend mode="normal" in="SourceGraphic" in2="effect1_dropShadow" result="shape"/>
</filter>
<filter id="filter1_d" x="15.9001" y="77.1531" width="173.328" height="83.9884" filterUnits="userSpaceOnUse" color-interpolation-filters="sRGB">
<feFlood flood-opacity="0" result="BackgroundImageFix"/>
<feColorMatrix in="SourceAlpha" type="matrix" values="0 0 0 0 0 0 0 0 0 0 0 0 0 0 0 0 0 0 127 0"/>
<feOffset dy="4"/>
<feGaussianBlur stdDeviation="2"/>
<feColorMatrix type="matrix" values="0 0 0 0 0 0 0 0 0 0 0 0 0 0 0 0 0 0 0.25 0"/>
<feBlend mode="normal" in2="BackgroundImageFix" result="effect1_dropShadow"/>
<feBlend mode="normal" in="SourceGraphic" in2="effect1_dropShadow" result="shape"/>
</filter>
<filter id="filter2_d" x="23.9841" y="17.92" width="110.096" height="54.72" filterUnits="userSpaceOnUse" color-interpolation-filters="sRGB">
<feFlood flood-opacity="0" result="BackgroundImageFix"/>
<feColorMatrix in="SourceAlpha" type="matrix" values="0 0 0 0 0 0 0 0 0 0 0 0 0 0 0 0 0 0 127 0"/>
<feOffset dy="4"/>
<feGaussianBlur stdDeviation="2"/>
<feColorMatrix type="matrix" values="0 0 0 0 0 0 0 0 0 0 0 0 0 0 0 0 0 0 0.25 0"/>
<feBlend mode="normal" in2="BackgroundImageFix" result="effect1_dropShadow"/>
<feBlend mode="normal" in="SourceGraphic" in2="effect1_dropShadow" result="shape"/>
</filter>
</defs>
</svg>
