<svg width="395" height="344" viewBox="0 0 395 344" fill="none" xmlns="http://www.w3.org/2000/svg">
<g clip-path="url(#clip0)">
<path d="M98.0117 110.485C98.0117 110.485 55.7655 125.195 47.6635 138.773C39.5615 152.352 98.0117 110.485 98.0117 110.485Z" fill="#FF6B6B"/>
<path d="M25.0181 157.569C24.7242 157.592 24.4291 157.55 24.1526 157.446C23.8761 157.343 23.6247 157.181 23.4155 156.972C22.1012 155.775 23.1754 153.512 24.0972 151.914C36.4569 130.495 98.6021 107.923 101.241 106.973L106.924 104.927L102.058 108.531C101.878 108.664 83.7989 122.043 65.2912 134.646C36.518 154.242 27.9755 157.569 25.0181 157.569ZM95.7179 110.976C79.3998 117.362 35.424 135.82 25.6206 152.812C24.3149 155.074 24.5912 155.642 24.5947 155.647C24.8589 155.935 28.1984 157.743 64.0914 133.315C76.6034 124.8 88.9476 115.907 95.7179 110.976V110.976Z" fill="#3F3D56"/>
<path d="M97.0962 95.7926C97.0962 95.7926 58.1647 91.7469 46.3544 98.6606C34.5441 105.574 97.0962 95.7926 97.0962 95.7926Z" fill="#FF6B6B"/>
<path d="M44.0449 102.405C30.4174 102.405 29.4818 100.197 29.0532 99.187C28.1968 97.1665 30.5801 95.264 31.3633 94.6388C48.2615 81.151 99.5877 94.7815 101.764 95.368L105.939 96.4935L101.662 97.1108C101.49 97.1356 84.2931 99.6085 66.9387 101.156C56.8177 102.059 49.4372 102.405 44.0449 102.405ZM55.9872 90.5196C46.3886 90.5196 37.6077 91.9253 32.4564 96.0371C30.902 97.2775 30.5164 98.1145 30.6739 98.4843C31.069 99.4154 34.8397 102.231 66.7838 99.3814C78.6873 98.3195 90.5159 96.8215 96.7982 95.9814C88.7489 94.1085 71.324 90.5196 55.9872 90.5196Z" fill="#3F3D56"/>
<path d="M108.237 88.8608C108.237 88.8608 88.6551 41.3262 93.3997 36.621C98.1443 31.9159 108.237 88.8608 108.237 88.8608Z" fill="#FF6B6B"/>
<path d="M109.32 93.0422L106.886 86.7525C106.826 86.5985 100.868 71.1698 95.9589 55.2857C85.8465 22.5724 89.9917 19.7789 91.3533 18.8609C91.6894 18.6174 92.0843 18.4702 92.4962 18.4351C92.9082 18.3999 93.3219 18.4781 93.6936 18.6612C101.331 22.2591 107.863 79.7823 108.583 86.3296L109.32 93.0422ZM92.6943 20.21C92.5627 20.2165 92.4361 20.2631 92.3311 20.3436C87.4647 23.6235 97.33 55.9152 106.002 79.4186C103.028 55.1839 97.5504 22.444 92.9491 20.2761C92.87 20.2353 92.783 20.2127 92.6943 20.21Z" fill="#3F3D56"/>
<path d="M115.639 99.3138C115.639 99.3138 126.149 51.2668 137.16 51.2668C148.171 51.2668 115.639 99.3138 115.639 99.3138Z" fill="#FF6B6B"/>
<path d="M112.866 102.629L113.906 98.6731C114.669 95.7721 132.817 27.6212 152.656 27.6212C155.376 27.6212 156.549 28.9112 157.055 29.9932C162.345 41.3192 120.255 93.5498 115.438 99.468L112.866 102.629ZM152.656 29.4032C136.821 29.4032 121.08 80.0002 116.764 94.996C130.966 77.1571 159.275 38.9202 155.461 30.7541C155.304 30.42 154.83 29.4032 152.656 29.4032Z" fill="#3F3D56"/>
<path d="M121.808 99.793C121.808 99.793 157.944 76.7081 231.978 83.7549C306.012 90.8016 121.808 99.793 121.808 99.793Z" fill="#FF6B6B"/>
<path d="M119.343 100.756L121.235 99.1166C121.618 98.7846 130.83 90.9126 149.288 84.582C166.273 78.7552 194.587 73.2664 233.015 80.2048C249.25 83.1358 251.358 85.3199 251.217 87.2433C251.077 89.1436 250.75 93.5943 185.882 97.7205C154.184 99.7366 122.154 100.675 121.833 100.684L119.343 100.756ZM198.139 78.746C156.398 78.746 131.721 93.7396 124.566 98.8155C133.036 98.5414 159.521 97.6117 185.776 95.9415C246.052 92.1073 249.4 87.9133 249.458 87.1114C249.465 87.0257 249.42 84.9766 232.705 81.959C221.299 79.8591 209.732 78.784 198.139 78.746Z" fill="#3F3D56"/>
<path d="M144.724 102.5C144.724 102.5 208.021 101.646 211.577 108.479C215.133 115.312 144.724 102.5 144.724 102.5Z" fill="#FF6B6B"/>
<path d="M219.682 119.96C199.478 119.96 150.914 105.293 144.468 103.319L139.186 101.701L144.704 101.575C152.801 101.392 223.938 100.196 228.412 114.674C228.943 116.389 228.328 117.49 227.719 118.111C226.445 119.41 223.595 119.96 219.682 119.96ZM150.497 103.276C180.187 112.073 221.413 122.012 226.467 116.856C226.741 116.577 227.018 116.137 226.731 115.206C223.551 104.92 175.033 103.107 150.497 103.276Z" fill="#3F3D56"/>
<path d="M132.385 109.594C132.385 109.594 170.616 127.458 163.146 132.955C155.675 138.452 132.385 109.594 132.385 109.594Z" fill="#FF6B6B"/>
<path d="M186.967 154.569C168.473 154.569 130.817 109.599 129.066 107.495L126.587 104.516L130.101 106.108C132.665 107.27 192.915 134.726 194.234 148.478C194.409 150.302 193.617 151.897 191.944 153.09C190.481 154.1 188.739 154.618 186.967 154.569ZM133.01 109.408C147.551 126.273 179.903 159.504 190.927 151.635C192.101 150.797 192.594 149.849 192.48 148.65C191.531 138.762 152.159 118.374 133.01 109.408Z" fill="#3F3D56"/>
<path d="M195.843 130.978C195.843 130.978 227.571 144.344 220.521 153.254C213.47 162.164 195.843 130.978 195.843 130.978Z" fill="#FF6B6B"/>
<path d="M136.791 120.286C136.791 120.286 202.893 193.349 196.724 197.804C190.554 202.259 136.791 120.286 136.791 120.286Z" fill="#FF6B6B"/>
<path d="M124.453 114.94C124.453 114.94 152.283 161.799 146.603 166.355C140.924 170.911 124.453 114.94 124.453 114.94Z" fill="#FF6B6B"/>
<path d="M155.953 183.908C155.606 183.906 155.262 183.847 154.933 183.735C144.73 180.347 124.166 119.481 121.855 112.552L119.8 106.389L123.419 111.766C123.526 111.926 134.344 128.022 143.943 144.675C161.689 175.458 160.218 181.512 157.568 183.387C157.097 183.727 156.532 183.909 155.953 183.908ZM125.767 118.546C133.268 140.072 148.369 179.68 155.483 182.043C155.657 182.117 155.847 182.145 156.035 182.125C156.223 182.105 156.403 182.036 156.558 181.927C158.014 180.897 159.552 175.292 142.424 145.579C136.347 135.037 129.779 124.716 125.767 118.546H125.767Z" fill="#3F3D56"/>
<path d="M112.679 113.158C112.679 113.158 87.631 187.876 103.001 187.106C118.371 186.336 112.679 113.158 112.679 113.158Z" fill="#FF6B6B"/>
<path d="M96.7663 199.593C94.0688 199.593 91.9945 198.527 90.5968 196.421C80.6806 181.481 110.056 115.588 111.31 112.79L112.651 109.804L112.99 113.065C113.268 115.733 119.629 178.613 105.218 195.411C102.94 198.066 100.23 199.47 97.163 199.585C97.0296 199.59 96.8971 199.593 96.7663 199.593ZM111.546 116.666C105.739 130.165 83.86 183.073 92.0608 195.429C93.178 197.113 94.8254 197.894 97.0976 197.805C99.6935 197.708 101.914 196.542 103.887 194.244C115.933 180.201 112.679 130.234 111.546 116.666Z" fill="#3F3D56"/>
<path d="M104.027 116.872C104.027 116.872 61.9824 165.488 65.8303 170.608C69.6782 175.728 104.027 116.872 104.027 116.872Z" fill="#FF6B6B"/>
<path d="M53.1813 188.331C52.6245 188.34 52.0811 188.158 51.6397 187.815C51.3401 187.569 51.0959 187.261 50.9234 186.911C50.7509 186.562 50.6542 186.18 50.6396 185.789C49.5835 173.712 105.551 110.78 107.933 108.107L113.567 101.787L109.351 109.15C107.554 112.287 65.2122 186.02 53.8104 188.267C53.6032 188.308 53.3925 188.33 53.1813 188.331ZM103.297 116.054C84.7544 137.344 51.6621 177.248 52.3954 185.633C52.389 185.779 52.4151 185.924 52.4717 186.058C52.5283 186.193 52.614 186.313 52.7225 186.409C52.831 186.484 52.9551 186.533 53.0853 186.552C53.2154 186.571 53.3481 186.559 53.473 186.518C61.3528 184.965 88.8789 140.585 103.297 116.054H103.297Z" fill="#3F3D56"/>
<path d="M91.4077 84.1358C91.4077 84.1358 54.7517 40.3625 20.8549 44.6048C-13.0418 48.847 91.4077 84.1358 91.4077 84.1358Z" fill="#FF6B6B"/>
<path d="M96.2938 86.1813L93.4088 85.5147C93.1772 85.4612 70.0097 80.0895 47.1047 73.2368C0.201599 59.2047 0.050115 52.7523 0.00107826 50.6322C-0.0591717 48.0741 2.51692 46.0954 7.87651 44.5831C27.7665 38.9704 50.2248 50.0262 65.5573 60.2915C75.8536 67.2487 85.4591 75.1977 94.2394 84.0273L96.2938 86.1813ZM19.2593 44.842C15.5741 44.8231 11.9036 45.3137 8.34985 46.2999C4.06527 47.5085 1.72673 49.0321 1.7629 50.59C1.96344 59.1447 53.9791 74.3993 90.7638 83.0684C82.0681 74.6355 49.216 44.842 19.2593 44.842H19.2593Z" fill="#3F3D56"/>
<path d="M62.7574 81.0818C62.7574 81.0818 14.2827 77.5178 17.8081 86.4279C21.3335 95.338 62.7574 81.0818 62.7574 81.0818Z" fill="#FF6B6B"/>
<path d="M75.0965 48.1145C75.0965 48.1145 72.4524 35.6403 68.0456 38.3134C63.6388 40.9864 75.0965 48.1145 75.0965 48.1145Z" fill="#FF6B6B"/>
<path d="M119.751 56.9409C119.751 56.9409 131.845 5.564 126.364 5.37551C120.883 5.18703 119.751 56.9409 119.751 56.9409Z" fill="#FF6B6B"/>
<path d="M117.501 68.3158L117.402 61.4927C117.37 59.3013 116.698 7.74021 123.328 0.936694C123.582 0.650436 123.89 0.419648 124.235 0.258553C124.58 0.0974575 124.954 0.00946486 125.334 0C125.702 0.0015213 126.066 0.0908265 126.394 0.260672C126.722 0.430517 127.006 0.676126 127.222 0.977588C132.325 7.58446 120.503 56.1767 119.138 61.6959L117.501 68.3158ZM125.334 1.78202C125.246 1.78202 124.979 1.78202 124.584 2.1875C120.205 6.68083 119.188 36.5727 119.129 54.1523C123.983 33.2049 128.931 6.08479 125.833 2.07438C125.781 1.98682 125.708 1.91404 125.621 1.86289C125.534 1.81174 125.435 1.78391 125.334 1.78202Z" fill="#3F3D56"/>
<path d="M175.571 64.1527C175.571 64.1527 180.859 50.7876 186.148 54.3516C191.436 57.9156 175.571 64.1527 175.571 64.1527Z" fill="#FF6B6B"/>
<path d="M125.334 182.657C125.334 182.657 118.283 235.226 131.503 234.335C144.724 233.444 125.334 182.657 125.334 182.657Z" fill="#FF6B6B"/>
<path d="M162.216 170.702C162.216 170.702 155.461 159.319 155.461 151.352C155.461 151.352 143.638 138.831 147.016 135.416C150.394 132.001 157.712 145.091 157.712 145.091C157.712 145.091 144.201 129.725 148.142 127.448C152.083 125.172 165.031 142.246 165.031 142.246L169.535 139.969C169.535 139.969 159.969 116.117 166.72 115.497C169.816 115.212 176.853 138.262 176.853 138.262L184.172 157.043C184.172 157.043 186.986 163.872 185.86 167.856C185.174 170.292 184.611 172.761 184.172 175.255L162.216 170.702Z" fill="#FFB9B9"/>
<path opacity="0.1" d="M179.668 173.547C179.668 173.547 183.609 167.287 182.183 157.728C180.756 148.169 172.912 142.815 172.912 142.815C172.912 142.815 167.846 146.799 172.912 157.043C172.912 157.043 166.72 162.734 171.787 171.84" fill="black"/>
<path d="M181.92 173.547C181.92 173.547 185.861 167.287 184.434 157.728C183.008 148.169 175.164 142.815 175.164 142.815C175.164 142.815 170.098 146.799 175.164 157.043C175.164 157.043 168.972 162.734 174.038 171.84" fill="#FFB9B9"/>
<path opacity="0.1" d="M166.438 141.961L163.342 137.124C163.342 137.124 148.705 134.847 150.394 139.969C152.083 145.091 158.838 142.815 158.838 142.815L162.779 146.799L166.438 141.961Z" fill="black"/>
<path d="M168.972 141.676L164.468 135.416C164.468 135.416 149.831 133.14 151.52 138.262C153.209 143.384 159.964 141.107 159.964 141.107L163.905 145.091L168.972 141.676Z" fill="#FFB9B9"/>
<path d="M273.401 216.516L270.586 239.281L314.497 242.127V214.809L273.401 216.516Z" fill="#FFB9B9"/>
<path d="M395 344L359.39 271.999C357.262 264.878 350.619 253.279 329.978 245.826L314.497 232.586L302.956 232.167L256.793 225.338C256.793 225.338 221.327 223.061 198.246 237.289L192.053 234.444C192.053 234.444 181.92 198.02 186.423 171.84L160.527 169.564C160.527 169.564 146.453 231.598 153.209 250.379C159.964 269.16 184.735 282.819 184.735 282.819L206.69 305.015L215.134 343.715H346.867L348.963 333.562L359.252 343.715L395 344Z" fill="#CFCCE0"/>
<path d="M345.21 214.812C303.735 226.134 262.97 226.935 223.067 214.986C218.377 213.582 215.17 209.418 215.17 204.693V86.8522C215.17 81.5794 219.138 77.0816 224.547 76.2242C262.189 70.2563 302.066 70.7185 343.773 76.447C349.284 77.2039 353.375 81.7533 353.375 87.1083V204.443C353.375 209.268 350.035 213.495 345.21 214.812Z" fill="#CFCCE0"/>
<path d="M259.675 134.174C259.675 134.174 250.136 120.079 256.006 116.369C261.877 112.66 270.682 123.046 270.682 123.046C270.682 123.046 281.689 113.402 287.56 117.111C293.43 120.82 281.689 134.174 281.689 134.174C281.689 134.174 290.495 136.399 291.229 142.334C291.963 148.269 294.898 163.848 282.423 164.589C275.74 164.987 272.006 163.042 269.979 161.151C269.241 160.483 268.288 160.107 267.297 160.096C266.306 160.084 265.345 160.436 264.592 161.087C260.362 164.69 252.743 168.843 247.2 158.655C244.999 143.076 259.675 134.174 259.675 134.174Z" fill="#3F3D56"/>
<path d="M330.121 135.657C330.121 135.657 339.661 121.562 333.79 117.853C327.92 114.144 319.114 124.53 319.114 124.53C319.114 124.53 308.107 114.886 302.236 118.595C296.366 122.304 308.107 135.657 308.107 135.657C308.107 135.657 299.301 137.883 298.567 143.818C297.834 149.752 294.898 165.331 307.373 166.073C314.056 166.471 317.791 164.526 319.818 162.635C320.556 161.966 321.508 161.591 322.499 161.579C323.49 161.567 324.451 161.919 325.205 162.57C329.435 166.173 337.053 170.326 342.596 160.138C344.798 144.56 330.121 135.657 330.121 135.657Z" fill="#3F3D56"/>
<path d="M248.094 174.18C248.094 174.18 261.859 185.384 291.213 184.678C320.566 183.971 330.058 182.76 336.333 175.766C342.607 168.771 344.467 176.85 342.518 182.145C340.57 187.44 338.068 196.476 323.445 197.941C313.818 198.905 293.011 199.134 279.917 199.178C269.739 199.263 259.676 196.999 250.493 192.56C250.372 192.501 250.251 192.441 250.13 192.381C247.345 190.99 245 188.84 243.36 186.172C241.72 183.505 240.85 180.427 240.849 177.287C240.85 174.791 241.285 173.443 242.892 172.951C245.787 172.066 248.094 174.18 248.094 174.18Z" fill="#3F3D56"/>
<path d="M290.202 225.512C267.767 225.524 245.459 222.102 224.037 215.365C221.387 214.544 219.068 212.884 217.423 210.63C215.777 208.375 214.892 205.646 214.898 202.844V64.7929C214.889 61.6847 215.977 58.6752 217.966 56.3054C219.955 53.9356 222.716 52.361 225.751 51.8647C266.178 45.1285 310.942 45.2159 358.801 52.1243C361.881 52.5842 364.697 54.1456 366.736 56.5252C368.776 58.9047 369.903 61.9445 369.915 65.0929V202.552C369.903 205.405 368.976 208.177 367.272 210.452C365.568 212.726 363.179 214.38 360.465 215.164C337.03 221.887 313.861 225.368 291.603 225.507C291.137 225.51 290.668 225.512 290.202 225.512ZM288.642 47.8443C267.631 47.7734 246.65 49.4373 225.907 52.8193C223.096 53.279 220.539 54.7373 218.696 56.9321C216.854 59.1269 215.846 61.9142 215.854 64.7929V202.844C215.849 205.439 216.669 207.967 218.194 210.056C219.719 212.144 221.867 213.681 224.322 214.441C267.092 227.901 312.809 227.831 360.204 214.233L360.335 214.699L360.204 214.233C362.717 213.507 364.93 211.976 366.509 209.869C368.088 207.763 368.947 205.195 368.958 202.552V65.0928C368.947 62.177 367.903 59.3617 366.015 57.1578C364.126 54.954 361.518 53.5078 358.665 53.0817C335.476 49.6663 312.076 47.9161 288.642 47.8443V47.8443Z" fill="#3F3D56"/>
<path d="M285.703 68.313C275.161 68.313 266.14 67.835 258.754 67.1872C235.523 65.1502 223.005 61.0391 222.881 60.9977L223.181 60.079C223.304 60.1201 235.747 64.2027 258.882 66.2274C280.234 68.0967 315.322 68.544 361.217 60.0625L361.389 61.0143C331.237 66.5861 305.73 68.313 285.703 68.313Z" fill="#3F3D56"/>
</g>
<defs>
<clipPath id="clip0">
<rect width="395" height="344" fill="white"/>
</clipPath>
</defs>
</svg>
